<?xml version="1.0" standalone="no"?>
<!DOCTYPE svg PUBLIC "-//W3C//DTD SVG 20010904//EN"
 "http://www.w3.org/TR/2001/REC-SVG-20010904/DTD/svg10.dtd">
<svg version="1.0" xmlns="http://www.w3.org/2000/svg"
 width="1024.000000pt" height="1040.000000pt" viewBox="0 0 1024.000000 1040.000000"
 preserveAspectRatio="xMidYMid meet">

<rect width="1024" height="1040" rx="160" fill="#2A6B4F"/>

<g transform="translate(0.000000,1040.000000) scale(0.100000,-0.100000)"
fill="#FFFFFF" stroke="none">
<path d="M1099 9138 c-5 -11 -5 -3078 0 -3078 3 0 68 62 144 138 l139 139 3
1169 c2 643 4 1208 4 1256 l1 88 1248 0 1247 0 144 144 145 145 -1537 1 c-845
0 -1538 -1 -1538 -2z"/>
<path d="M6110 9132 c0 -4 62 -69 138 -145 l137 -137 1312 -2 1312 -3 3 -1322
3 -1323 140 -140 c77 -77 143 -140 147 -140 5 0 8 722 8 1604 l0 1604 -52 5
c-91 7 -3148 7 -3148 -1z"/>
<path d="M7112 7824 c-14 -27 -148 -437 -166 -511 -28 -109 -45 -215 -55 -353
-14 -183 -15 -209 -6 -655 7 -375 6 -394 -14 -495 -28 -138 -82 -249 -162
-335 -61 -65 -162 -127 -178 -109 -5 5 -16 43 -26 84 -37 161 -139 317 -237
363 -107 50 -251 35 -339 -35 -25 -21 -37 -48 -119 -287 -43 -124 -92 -263
-109 -309 -86 -230 19 -419 249 -451 109 -15 226 13 306 74 42 32 50 32 74 -7
26 -43 25 -79 -4 -136 -60 -117 -257 -255 -848 -597 -152 -87 -152 -88 -132
-148 11 -33 23 -49 38 -53 13 -3 95 6 182 21 87 14 215 35 284 46 222 37 265
65 386 249 120 183 229 442 269 639 9 42 18 83 21 92 2 9 31 33 64 53 324 200
531 599 570 1101 20 267 63 1745 50 1758 -4 5 -26 11 -48 14 -32 4 -42 2 -50
-13z"/>
<path d="M3415 7259 c-64 -34 -103 -67 -161 -137 -87 -105 -108 -153 -109
-242 0 -93 23 -136 102 -187 l54 -34 -47 -42 c-122 -109 -317 -232 -519 -328
-68 -32 -126 -63 -130 -69 -10 -17 24 -108 44 -115 56 -17 391 124 566 240
307 204 484 473 473 719 -4 97 -32 165 -82 196 -46 28 -137 27 -191 -1z m55
-233 c24 -27 37 -79 32 -138 -3 -36 -4 -37 -35 -31 -71 12 -167 90 -167 134 0
24 63 58 111 59 25 0 42 -7 59 -24z"/>
<path d="M5178 7121 c-147 -47 -271 -163 -421 -393 l-37 -57 23 -22 c12 -11
34 -27 50 -35 26 -14 29 -13 93 36 103 79 157 103 246 108 69 4 84 2 133 -22
40 -20 55 -33 55 -48 0 -22 -107 -164 -161 -214 -70 -64 -163 -125 -287 -188
-71 -36 -135 -72 -142 -81 -13 -15 -9 -103 6 -126 14 -23 305 23 390 60 103
46 190 144 272 306 141 282 161 544 47 644 -61 53 -162 65 -267 32z"/>
<path d="M7841 6887 c-42 -51 -164 -362 -191 -486 -38 -174 -40 -232 -41
-1168 -2 -750 0 -925 11 -938 9 -11 26 -15 49 -13 44 4 52 18 110 208 106 348
128 549 136 1235 3 259 8 626 11 816 5 316 4 347 -11 353 -27 10 -62 7 -74 -7z"/>
<path d="M2912 5798 c-10 -13 -135 -599 -145 -687 -2 -10 20 -18 74 -27 207
-36 409 -153 496 -288 61 -95 52 -143 -47 -249 -105 -112 -250 -205 -645 -412
-71 -37 -161 -86 -199 -108 l-68 -40 6 -40 c10 -63 22 -77 64 -77 20 0 120 14
222 30 102 17 228 37 280 46 138 21 164 30 213 72 54 46 89 93 156 205 190
323 303 693 285 930 -25 320 -198 532 -504 620 -116 33 -174 41 -188 25z"/>
<path d="M5063 5558 c-6 -7 -31 -96 -57 -198 -55 -216 -117 -416 -158 -513
-46 -108 -94 -175 -197 -277 -143 -140 -301 -249 -714 -490 -60 -35 -111 -68
-113 -74 -2 -6 4 -33 14 -61 16 -45 21 -50 52 -53 19 -2 93 3 165 12 71 8 198
23 280 32 188 20 257 37 316 75 122 78 237 256 319 495 55 160 79 256 149 609
76 384 80 406 74 421 -4 11 -75 34 -106 34 -8 0 -19 -6 -24 -12z"/>
<path d="M9158 4376 l-138 -141 0 -1338 -1 -1337 -1332 0 -1332 0 -143 -143
c-78 -78 -142 -144 -142 -147 0 -3 729 -4 1620 -2 l1620 2 0 1625 c0 894 -3
1624 -7 1624 -5 -1 -70 -65 -145 -143z"/>
<path d="M1093 2805 l1 -1535 1535 0 1536 0 -145 145 -145 145 -1246 0 -1246
0 -1 1252 -1 1253 -138 137 c-76 76 -141 138 -145 138 -3 0 -6 -691 -5 -1535z"/>
<path d="M6390 3543 c-8 -3 -105 -50 -215 -103 -110 -54 -240 -116 -290 -138
-260 -116 -422 -201 -476 -251 -60 -54 -142 -183 -137 -215 6 -41 32 -42 125
-4 272 111 743 312 793 339 93 49 155 119 219 247 46 90 37 146 -19 125z"/>
</g>
</svg>
